<?xml version="1.0" encoding="UTF-8" standalone="no"?><!DOCTYPE svg PUBLIC "-//W3C//DTD SVG 1.1//EN" "http://www.w3.org/Graphics/SVG/1.1/DTD/svg11.dtd"><svg width="100%" height="100%" viewBox="0 0 2161 1739" version="1.1" xmlns="http://www.w3.org/2000/svg" xmlns:xlink="http://www.w3.org/1999/xlink" xml:space="preserve" xmlns:serif="http://www.serif.com/" style="fill-rule:evenodd;clip-rule:evenodd;stroke-linejoin:round;stroke-miterlimit:2;"><path d="M2103.33,843.992l0,127.137c0,6.946 -2.604,13.021 -7.812,18.229c-5.209,5.209 -11.267,7.813 -18.229,7.813l-303.384,-0c-8.666,-0 -13.021,4.342 -13.021,13.021l0,156.25c0,8.679 4.355,13.021 13.021,13.021l292.967,-0c6.962,-0 13.021,2.604 18.229,7.812c5.208,5.208 7.813,11.283 7.813,18.229l-0,130.209c-0,6.945 -2.605,13.02 -7.813,18.229c-5.208,5.208 -11.267,7.812 -18.229,7.812l-292.967,0c-8.666,0 -13.021,4.342 -13.021,13.021l0,156.25c0,8.679 4.355,13.021 13.021,13.021l308.592,-0c6.962,-0 13.021,2.604 18.229,7.812c5.208,5.209 7.813,11.284 7.813,18.23l-0,130.208c-0,6.946 -2.605,13.021 -7.813,18.229c-5.208,5.208 -11.267,7.813 -18.229,7.813l-477.863,-0c-6.929,-0 -13.02,-2.605 -18.229,-7.813c-5.208,-5.208 -7.812,-11.283 -7.812,-18.229l-0,-799.863l524.737,-56.441Z" style="fill:#fff;fill-opacity:0.15;fill-rule:nonzero;"/><path d="M1378.08,921.996l0,529.6c0,39.933 -7.154,77.483 -21.479,112.641c-14.321,35.155 -34.513,65.746 -60.554,91.788c-26.042,26.042 -57.709,46.667 -95.05,61.858c-37.313,15.192 -78.542,22.775 -123.7,22.775c-43.384,0 -83.334,-7.583 -119.792,-22.775c-36.458,-15.191 -68.35,-35.816 -95.696,-61.858c-27.341,-26.042 -48.608,-56.633 -63.8,-91.788c-15.191,-35.158 -22.796,-72.708 -22.796,-112.641l0,-36.458c0,-6.942 2.605,-13.021 7.813,-18.23c5.208,-5.208 11.304,-7.812 18.229,-7.812l131.513,-0c6.958,-0 13.02,2.604 18.229,7.812c5.208,5.209 7.812,11.288 7.812,18.23l0,36.458c0,29.516 10.642,54.479 31.909,74.879c21.266,20.4 50.12,30.592 86.579,30.592c35.608,-0 64.029,-10.625 85.296,-31.892c21.266,-21.267 31.891,-50.142 31.891,-86.6l0,-496.821l183.596,-19.758Z" style="fill:#fff;fill-opacity:0.15;fill-rule:nonzero;"/><path d="M638.492,1001.56l-0,698.733c-0,6.942 -2.604,13.021 -7.813,18.229c-5.208,5.208 -11.271,7.813 -18.229,7.813l-153.646,-0c-11.271,-0 -19.533,-2.38 -24.741,-7.155c-5.209,-4.775 -8.663,-9.775 -10.417,-14.983l-177.083,-457.029c-1.717,-4.342 -4.113,-6.079 -7.155,-5.209c-3.037,0.867 -4.562,3.471 -4.562,7.813l-0,450.521c-0,6.941 -2.604,13.021 -7.813,18.229c-5.208,5.208 -11.27,7.813 -18.229,7.813l-130.208,-0.001c-6.929,0 -13.021,-2.604 -18.229,-7.812c-5.209,-5.208 -7.813,-11.288 -7.813,-18.229l0,-635.713l284.113,-30.554l107.812,299.079c1.754,4.338 4.134,6.075 7.171,5.209c3.038,-0.871 4.55,-3.475 4.55,-7.813l0,-309.342l182.292,-19.6Z" style="fill:#fff;fill-opacity:0.15;fill-rule:nonzero;"/><path d="M1805.57,508.075l-7.238,36.125c-0.383,1.442 -0.641,2.763 -0.745,3.975l-36.93,185.75l-200.087,21.508l197.396,-733.366c2.604,-13.021 10.854,-19.534 24.741,-19.534l174.479,0c13.888,0 22.138,6.513 24.742,19.534l179.025,668.8l-188.575,20.279l-36.442,-182.029l-18.437,-92.242l-111.925,71.2l-0.004,-0Z" style="fill:#fff;fill-opacity:0.15;fill-rule:nonzero;"/><path d="M829.583,834.063l0,-805.488c0,-6.942 2.605,-13.021 7.813,-18.229c5.208,-5.208 11.283,-7.813 18.229,-7.813l286.458,0c37.325,0 72.709,7.171 106.13,21.496c33.42,14.321 62.5,33.854 87.237,58.592c24.742,24.742 44.271,53.821 58.596,87.242c14.321,33.416 21.475,68.783 21.475,106.108c-0,50.35 -10.85,93.542 -32.554,129.567c-21.7,36.025 -55.988,69.654 -102.863,100.904c-9.55,6.946 -14.325,13.454 -14.325,19.529c0,6.079 2.171,13.892 6.513,23.437l96.996,226.6l-191.98,20.659l-95.12,-230.329c-1.738,-3.471 -4.342,-7.155 -7.813,-11.059c-3.471,-3.908 -8.679,-5.871 -15.625,-5.871l-33.854,0c-8.679,0 -13.021,4.342 -13.021,13.021l0,252.034l-182.292,19.6Zm195.313,-649.238c-8.679,0 -13.021,4.342 -13.021,13.021l0,156.25c0,8.683 4.342,13.021 13.021,13.021l117.187,-0c25.175,-0 46.667,-8.888 64.463,-26.684c17.796,-17.795 26.683,-39.287 26.683,-64.462c0,-25.171 -8.887,-46.65 -26.683,-64.442c-17.796,-17.796 -39.288,-26.704 -64.463,-26.704l-117.187,0Z" style="fill:#fff;fill-opacity:0.15;fill-rule:nonzero;"/><path d="M192.067,902.638c-33.229,-14.896 -62.259,-34.771 -87.084,-59.6c-26.475,-26.476 -47.741,-57.084 -63.804,-91.805c-16.058,-34.72 -26.266,-71.616 -30.604,-110.679c-3.475,-26.908 -6.079,-55.987 -7.812,-87.237c-1.738,-31.25 -2.605,-62.934 -2.605,-95.055c0,-32.116 0.867,-63.575 2.605,-94.391c1.733,-30.817 4.337,-60.121 7.812,-87.9c4.338,-39.063 14.546,-75.954 30.604,-110.675c16.063,-34.725 37.329,-65.313 63.804,-91.788c26.475,-26.475 57.725,-47.312 93.75,-62.5c36.025,-15.191 76.596,-22.796 121.738,-22.796c45.137,0 85.729,7.605 121.75,22.796c36.025,15.188 67.275,36.025 93.75,62.5c26.479,26.475 47.746,57.063 63.804,91.788c16.058,34.721 26.25,71.612 30.592,110.675c3.471,27.779 5.866,57.083 7.166,87.9c1.304,30.817 1.946,62.275 1.946,94.392c0,32.12 -0.641,63.804 -1.946,95.054c-1.3,31.25 -3.696,60.329 -7.166,87.237c-4.342,39.063 -14.534,75.959 -30.592,110.679c-16.058,34.721 -37.325,65.33 -63.804,91.805c-9.304,9.304 -19.184,17.9 -29.65,25.8l-314.254,33.8Z" style="fill:#fff;fill-opacity:0.15;fill-rule:nonzero;"/></svg>